<svg width="24" height="24" viewBox="0 0 24 24" fill="none" xmlns="http://www.w3.org/2000/svg">
<g clip-path="url(#clip0_6005_5345)">
<path d="M7.0301 0.0842379C5.7533 0.144478 4.88138 0.348238 4.11914 0.647758C3.33026 0.955198 2.66162 1.36776 1.99634 2.03544C1.33106 2.70312 0.921379 3.37224 0.616099 4.16232C0.320659 4.92624 0.120499 5.79888 0.0640995 7.0764C0.00769946 8.35392 -0.00478054 8.76456 0.00145946 12.0233C0.00769946 15.282 0.0220995 15.6905 0.0840194 16.9706C0.144979 18.2472 0.348019 19.1189 0.647539 19.8814C0.955459 20.6702 1.36754 21.3386 2.03546 22.0042C2.70338 22.6697 3.37202 23.0784 4.16402 23.3842C4.92722 23.6791 5.8001 23.8802 7.07738 23.9362C8.35466 23.9921 8.76578 24.005 12.0235 23.9988C15.2813 23.9926 15.6915 23.9782 16.9714 23.9174C18.2513 23.8567 19.1184 23.6522 19.8811 23.3542C20.67 23.0455 21.3389 22.6342 22.0039 21.966C22.669 21.2978 23.0784 20.6282 23.3835 19.8377C23.6791 19.0745 23.88 18.2016 23.9355 16.9253C23.9914 15.6444 24.0046 15.2354 23.9983 11.9772C23.9921 8.71896 23.9775 8.31048 23.9167 7.0308C23.856 5.75112 23.6527 4.88208 23.3535 4.11912C23.0451 3.33024 22.6335 2.66232 21.9658 1.99632C21.2981 1.33032 20.628 0.921118 19.8377 0.616798C19.074 0.321358 18.2016 0.119998 16.9243 0.0647979C15.6471 0.00959794 15.2359 -0.00456206 11.977 0.00167794C8.71802 0.00791794 8.31002 0.0218379 7.0301 0.0842379ZM7.17026 21.7774C6.00026 21.7265 5.36498 21.5321 4.94162 21.3694C4.38098 21.1534 3.98162 20.8922 3.5597 20.4744C3.13778 20.0566 2.87858 19.6558 2.6597 19.0963C2.4953 18.673 2.2973 18.0384 2.24258 16.8684C2.18306 15.6038 2.17058 15.2242 2.16362 12.0204C2.15666 8.81664 2.1689 8.43744 2.22434 7.1724C2.27426 6.00336 2.46986 5.36736 2.63234 4.94424C2.84834 4.38288 3.1085 3.98424 3.5273 3.56256C3.9461 3.14088 4.3457 2.8812 4.90562 2.66232C5.3285 2.4972 5.96306 2.30088 7.13258 2.2452C8.3981 2.1852 8.7773 2.1732 11.9806 2.16624C15.1839 2.15928 15.564 2.17128 16.83 2.22696C17.9991 2.27784 18.6353 2.47152 19.0579 2.63496C19.6188 2.85096 20.0179 3.1104 20.4396 3.52992C20.8613 3.94944 21.1212 4.3476 21.3401 4.90872C21.5055 5.3304 21.7018 5.96472 21.757 7.13496C21.8172 8.40048 21.8309 8.77992 21.8367 11.983C21.8424 15.186 21.8311 15.5664 21.7757 16.831C21.7246 18.001 21.5307 18.6365 21.3677 19.0603C21.1517 19.6207 20.8913 20.0203 20.4723 20.4418C20.0532 20.8632 19.6541 21.1229 19.0939 21.3418C18.6715 21.5066 18.0363 21.7034 16.8677 21.7591C15.6022 21.8186 15.223 21.8311 12.0185 21.8381C8.81402 21.845 8.43602 21.8321 7.1705 21.7774M16.9529 5.58672C16.9534 5.87154 17.0383 6.14983 17.1969 6.38638C17.3556 6.62293 17.5808 6.80713 17.8442 6.91566C18.1075 7.0242 18.3971 7.05221 18.6764 6.99614C18.9556 6.94007 19.212 6.80245 19.413 6.60068C19.614 6.39891 19.7507 6.14205 19.8057 5.8626C19.8608 5.58314 19.8317 5.29364 19.7222 5.0307C19.6127 4.76777 19.4277 4.54321 19.1906 4.38544C18.9534 4.22766 18.6748 4.14375 18.39 4.14432C18.0082 4.14508 17.6423 4.29746 17.3728 4.56795C17.1033 4.83844 16.9523 5.20489 16.9529 5.58672ZM5.8385 12.0122C5.84522 15.4154 8.60906 18.168 12.0115 18.1615C15.414 18.155 18.1685 15.3914 18.162 11.9882C18.1555 8.58504 15.391 5.83176 11.988 5.83848C8.58506 5.8452 5.83202 8.60952 5.8385 12.0122ZM7.99994 12.0079C7.99837 11.2168 8.23144 10.4429 8.66968 9.78426C9.10791 9.12559 9.73162 8.61165 10.4619 8.30745C11.1923 8.00325 11.9964 7.92244 12.7726 8.07525C13.5489 8.22806 14.2624 8.60761 14.8229 9.16593C15.3834 9.72424 15.7658 10.4362 15.9217 11.2119C16.0776 11.9875 15.9999 12.7919 15.6986 13.5234C15.3973 14.255 14.8859 14.8807 14.2289 15.3215C13.572 15.7624 12.7991 15.9985 12.0079 16.0001C11.4826 16.0012 10.9622 15.8988 10.4765 15.6988C9.99076 15.4987 9.54918 15.2049 9.17699 14.8342C8.8048 14.4635 8.50929 14.0231 8.30733 13.5382C8.10537 13.0532 8.00091 12.5332 7.99994 12.0079Z" fill="#4F4643"/>
</g>
<defs>
<clipPath id="clip0_6005_5345">
<rect width="24" height="24" fill="white"/>
</clipPath>
</defs>
</svg>
