<svg width="16" height="16" viewBox="0 0 16 16" fill="none" xmlns="http://www.w3.org/2000/svg">
<path d="M7.32422 11.7963C7.39414 11.866 7.44962 11.9488 7.48748 12.04C7.52533 12.1311 7.54482 12.2289 7.54482 12.3276C7.54482 12.4263 7.52533 12.524 7.48748 12.6152C7.44962 12.7064 7.39414 12.7892 7.32422 12.8588L7.00422 13.1788C6.66453 13.5198 6.26062 13.79 5.81585 13.9739C5.37107 14.1578 4.89426 14.2516 4.41297 14.2501C3.68818 14.2503 2.9796 14.0356 2.37689 13.633C1.77417 13.2304 1.3044 12.6582 1.027 11.9886C0.749603 11.3189 0.677047 10.5821 0.818511 9.87125C0.959975 9.1604 1.3091 8.50747 1.82172 7.99509L3.9936 5.82321C4.45556 5.36132 5.03258 5.0313 5.66492 4.86731C6.29726 4.70332 6.96194 4.71132 7.59015 4.89049C8.21836 5.06966 8.78727 5.41348 9.23797 5.88637C9.68867 6.35925 10.0048 6.944 10.1536 7.58009C10.1782 7.6768 10.1833 7.77746 10.1686 7.87617C10.1538 7.97488 10.1195 8.06965 10.0677 8.15493C10.0158 8.24021 9.94747 8.31428 9.86662 8.37281C9.78578 8.43133 9.69407 8.47313 9.59686 8.49576C9.49966 8.51839 9.39891 8.52139 9.30053 8.50458C9.20215 8.48777 9.10812 8.4515 9.02393 8.39789C8.93975 8.34427 8.86712 8.27439 8.81029 8.19235C8.75346 8.1103 8.71357 8.01774 8.69297 7.92009C8.60467 7.54461 8.41769 7.19952 8.15135 6.92051C7.88501 6.6415 7.54898 6.43869 7.17801 6.33304C6.80703 6.2274 6.41457 6.22275 6.0412 6.31958C5.66783 6.41641 5.3271 6.61121 5.05422 6.88384L2.88235 9.05571C2.5796 9.35821 2.37337 9.74369 2.28971 10.1634C2.20606 10.5831 2.24876 11.0182 2.4124 11.4137C2.57603 11.8091 2.85327 12.1472 3.20904 12.385C3.56481 12.6229 3.98313 12.75 4.4111 12.7501C4.69546 12.7509 4.97717 12.6953 5.2399 12.5866C5.50264 12.4778 5.74118 12.3179 5.94172 12.1163L6.2611 11.7963C6.33079 11.7263 6.41362 11.6708 6.50484 11.6329C6.59606 11.5949 6.69388 11.5754 6.79266 11.5754C6.89145 11.5754 6.98926 11.5949 7.08048 11.6329C7.1717 11.6708 7.25454 11.7263 7.32422 11.7963ZM14.1773 2.82321C13.4899 2.13603 12.5578 1.75 11.5858 1.75C10.6138 1.75 9.68163 2.13603 8.99422 2.82321L8.67485 3.14259C8.53395 3.28348 8.4548 3.47458 8.4548 3.67384C8.4548 3.87309 8.53395 4.06419 8.67485 4.20509C8.81574 4.34598 9.00684 4.42514 9.2061 4.42514C9.40536 4.42514 9.59645 4.34598 9.73735 4.20509L10.0573 3.88509C10.4635 3.47897 11.0143 3.25082 11.5886 3.25082C12.1629 3.25082 12.7137 3.47897 13.1198 3.88509C13.526 4.2912 13.7541 4.84201 13.7541 5.41634C13.7541 5.99067 13.526 6.54147 13.1198 6.94759L10.9442 9.11634C10.7437 9.31795 10.5051 9.47777 10.2424 9.58655C9.97967 9.69534 9.69796 9.75092 9.4136 9.75009C8.92578 9.74974 8.45239 9.58461 8.07019 9.28149C7.68799 8.97836 7.4194 8.55501 7.30797 8.08009C7.26289 7.88631 7.14267 7.71839 6.97377 7.61325C6.80487 7.50811 6.60112 7.47437 6.40735 7.51946C6.21358 7.56455 6.04565 7.68476 5.94051 7.85366C5.83537 8.02256 5.80164 8.22631 5.84672 8.42009C6.03492 9.22438 6.48929 9.94152 7.13616 10.4552C7.78303 10.9689 8.58445 11.249 9.41047 11.2501H9.4136C9.89511 11.2514 10.3721 11.1572 10.817 10.973C11.2619 10.7888 11.6658 10.5183 12.0055 10.177L14.1773 8.00509C14.5176 7.66487 14.7876 7.26094 14.9718 6.81638C15.1559 6.37183 15.2507 5.89534 15.2507 5.41415C15.2507 4.93295 15.1559 4.45647 14.9718 4.01191C14.7876 3.56736 14.5176 3.16343 14.1773 2.82321Z" fill="white"/>
</svg>
