<svg width="270" height="62" viewBox="0 0 270 62" fill="none" xmlns="http://www.w3.org/2000/svg">
<g clip-path="url(#clip0_5143_29089)">
<path d="M90.6907 33.2981C90.6907 38.5356 90.2449 41.0762 85.9853 43.4031L85.6881 43.5675L86.2495 44.4144L86.4889 44.2993C91.3841 42.0382 93.5305 40.2951 93.5305 33.0596V18.2516H90.6907V33.2899V33.2981Z" fill="white"/>
<path d="M116.405 18.6134C116.703 20.7429 116.826 23.3986 116.826 27.7893V32.7225C116.826 36.7925 114.606 38.9385 110.404 38.9385C106.202 38.9385 103.981 36.8007 103.981 32.5745V18.2598H101.109V32.6897C101.109 37.6229 104.147 40.3362 109.653 40.3362C115.159 40.3362 118.098 37.6558 118.098 32.5745V27.7893C118.098 23.6124 118.238 20.8744 118.552 18.6134L118.601 18.2598H116.356L116.405 18.6134Z" fill="white"/>
<path d="M140.708 18.6134C141.006 20.7347 141.129 23.3904 141.129 27.7893V35.2385L127.971 18.2598H124.859V18.7614L126.097 20.3565V30.4615C126.097 34.5067 125.965 37.3352 125.676 39.6456L125.635 39.9909H127.847L127.797 39.6374C127.5 37.516 127.376 34.8603 127.376 30.4615V21.9927L141.716 40.3362H142.409V27.7893C142.409 23.744 142.541 20.9156 142.83 18.6051L142.871 18.2598H140.659L140.708 18.6134Z" fill="white"/>
<path d="M179.986 34.2683C178.253 36.9158 175.644 38.3711 172.631 38.3711C167.909 38.3711 164.079 34.2683 164.079 28.3895C164.079 22.5106 167.471 18.6627 172.136 18.6627C174.851 18.6627 177.196 19.9947 178.913 22.5106L179.086 22.7655L180.671 21.3431L180.473 21.1047C178.641 18.8682 175.652 17.5856 172.284 17.5856C165.829 17.5856 161.313 22.2558 161.313 28.9404C161.313 35.6249 165.606 40.0073 171.764 40.0073C175.57 40.0073 178.608 38.2642 180.787 34.8356L180.969 34.5478L180.127 34.0627L179.986 34.2765V34.2683Z" fill="white"/>
<path d="M198.841 37.9271C196.084 38.5356 193.384 38.848 190.8 38.848H190.355V18.2598H187.515V39.9827H198.626L199.419 37.9189H198.841V37.9271Z" fill="white"/>
<path d="M207.905 18.2598H205.065V39.9827H207.905V18.2598Z" fill="white"/>
<path d="M230.582 18.6134C230.879 20.7347 231.003 23.3904 231.003 27.7893V35.2385L217.844 18.2598H214.732V18.7614L215.97 20.3565V30.4615C215.97 34.5067 215.838 37.3352 215.549 39.6456L215.508 39.9909H217.72L217.671 39.6374C217.374 37.516 217.25 34.8603 217.25 30.4615V21.9927L231.589 40.3362H232.282V27.7893C232.282 23.744 232.414 20.9156 232.703 18.6051L232.745 18.2598H230.532L230.582 18.6134Z" fill="white"/>
<path d="M243.055 18.2598H240.215V39.9827H243.055V18.2598Z" fill="white"/>
<path d="M269.158 34.3834L269.018 34.5972C267.284 37.2447 264.675 38.7 261.662 38.7C256.627 38.7 253.11 34.5972 253.11 28.7184C253.11 22.8395 256.503 18.9916 261.167 18.9916C263.883 18.9916 266.227 20.3236 267.944 22.8395L268.118 23.0944L269.703 21.672L269.505 21.4335C267.672 19.1971 264.684 17.9145 261.316 17.9145C254.86 17.9145 250.345 22.5846 250.345 29.2692C250.345 35.9538 254.637 40.3362 260.796 40.3362C264.601 40.3362 267.639 38.5931 269.818 35.1645L270 34.8767L269.158 34.3916V34.3834Z" fill="white"/>
<path d="M0 0.5V61.5H61.2447V0.5H0ZM1.07316 4.79195C1.07316 3.13108 2.65815 1.58532 4.31742 1.56888H15.1399V35.7318C15.1399 47.8513 13.72 54.1165 2.22063 59.5678C1.53545 58.9594 1.07316 58.096 1.06491 57.1998V4.79195H1.07316ZM31.3777 45.4093C31.3777 51.5677 31.2869 56.4927 30.8576 60.4311H4.36696C4.36696 60.4311 4.32568 60.4311 4.30091 60.4311C3.99548 60.4311 3.69004 60.3653 3.40111 60.2585C15.9571 55.1607 18.6648 51.099 18.6648 35.181V1.56888H23.1886V24.6237C23.1886 30.6834 26.0614 34.6301 31.3777 36.1183V45.4175V45.4093ZM31.3777 33.9065C28.0839 32.3032 26.4164 29.1212 26.4164 24.3771V1.56888H48.1768C48.5813 5.45795 48.6639 10.2926 48.6639 16.3112V24.6237C48.6639 30.5354 45.8241 34.0381 40.417 34.9096L33.3176 25.5939L33.2516 25.5117H29.6441V25.9311L31.3777 28.1921V33.9147V33.9065ZM36.6445 35.0987C35.2493 35.0412 33.9863 34.8356 32.8801 34.4985V30.1655L36.6445 35.0987ZM33.3919 60.4311C32.9627 56.4927 32.8719 51.5677 32.8719 45.4093V36.4554C34.0523 36.6692 35.3236 36.7925 36.7022 36.7925C37.115 36.7925 37.5112 36.776 37.9075 36.7514L56.0027 60.4311H33.3919ZM55.3671 25.5117L55.3918 25.7419C55.8376 29.7215 55.9284 34.7205 55.9284 40.994V55.2758L41.4489 36.2745C47.1615 34.9178 50.1498 30.8808 50.1498 24.3771V16.3029C50.1498 10.2843 50.2406 5.44972 50.6369 1.56065H56.9108C58.57 1.5771 60.155 3.12286 60.155 4.78373C60.155 4.8084 60.155 4.82484 60.155 4.84951V57.2163C60.1303 58.7045 58.8755 60.1105 57.4061 60.3736V40.9858C57.4061 34.7123 57.4969 29.7132 57.9426 25.7337L57.9674 25.5035H55.3423L55.3671 25.5117Z" fill="white"/>
</g>
<defs>
<clipPath id="clip0_5143_29089">
<rect width="270" height="61" fill="white" transform="translate(0 0.5)"/>
</clipPath>
</defs>
</svg>
