<svg width="16" height="17" viewBox="0 0 16 17" fill="none" xmlns="http://www.w3.org/2000/svg">
<path d="M14.976 12.6312C14.9889 12.4357 15.0136 12.0301 14.9906 11.9514C14.9833 11.9262 14.971 11.9004 14.9497 11.8681C14.8718 11.7501 14.767 11.6527 14.6504 11.5787C13.724 10.9941 12.7931 10.4259 11.8571 9.87526C11.7803 9.83007 11.6912 9.81128 11.6072 9.82889C11.4267 9.86587 11.2664 9.96507 11.1498 10.1106C10.845 10.4916 10.5401 10.872 10.2341 11.2518C9.88379 11.7401 9.27795 11.591 8.57515 11.1338C8.27756 10.9606 7.50134 10.3631 7.32648 10.2157C7.04514 9.97505 6.47797 9.45028 6.01672 8.95604C5.86092 8.78699 5.22313 8.03095 5.03258 7.73569C4.36565 6.69966 4.6397 6.41497 4.68286 6.36096C4.98158 6.00232 5.27973 5.64308 5.57845 5.28443C5.7096 5.16586 5.74266 4.79547 5.66588 4.62348C5.17381 3.50116 4.65988 2.38177 4.12522 1.26591C4.05012 1.10977 3.89487 1.00998 3.73066 1.01174C3.54852 1.0135 3.19824 1.01937 3.01385 1.02289C2.59632 1.0317 2.44332 1.20956 2.28863 1.29995C1.898 1.52829 1.64973 1.81533 1.43676 2.26848C1.12179 2.93941 0.96262 3.74711 1.00746 4.60763C1.00858 4.62818 1.01082 4.64872 1.01194 4.66927C1.09489 6.23183 2.47863 8.54867 4.56404 10.9947C4.70079 11.1531 5.3397 11.7571 5.51904 11.9145C5.73482 12.0999 7.26483 13.4371 9.23928 14.3129C9.5677 14.4579 9.88155 14.5776 10.2094 14.6815C10.5647 14.7942 10.8707 14.9251 11.4962 14.9821C11.8016 15.0102 12.1766 15.0466 12.6502 14.941C13.1534 14.8289 13.3507 14.7232 13.6724 14.5489C14.1914 14.2695 14.5607 13.7969 14.7507 13.4735C14.8359 13.3291 14.953 12.9769 14.976 12.6306V12.6312Z" fill="#333333"/>
</svg>
