<svg width="18" height="19" viewBox="0 0 18 19" fill="none" xmlns="http://www.w3.org/2000/svg">
<g clip-path="url(#clip0_5374_4116)">
<path d="M9.39829 0.0269063C10.3799 0.0117188 11.3558 0.0207188 12.3306 0.0117188C12.3897 1.15978 12.8025 2.32922 13.6429 3.14091C14.4816 3.97284 15.6679 4.35366 16.8222 4.48247V7.50253C15.7405 7.46709 14.6537 7.24209 13.6722 6.77634C13.2447 6.58284 12.8464 6.33366 12.4566 6.07884C12.4515 8.27034 12.4656 10.459 12.4425 12.6415C12.384 13.69 12.0381 14.7335 11.4284 15.5975C10.4474 17.0358 8.74467 17.9735 6.99586 18.0027C5.92317 18.064 4.85161 17.7715 3.93754 17.2327C2.42273 16.3394 1.35679 14.7042 1.20154 12.9492C1.18354 12.574 1.17736 12.1994 1.19254 11.8332C1.32754 10.4062 2.03348 9.04097 3.12923 8.11228C4.37123 7.03059 6.11104 6.51534 7.74004 6.82022C7.75523 7.93116 7.71079 9.04097 7.71079 10.1519C6.96661 9.91116 6.09698 9.97866 5.44673 10.4303C4.97198 10.738 4.61142 11.2094 4.42354 11.7427C4.26829 12.1229 4.31273 12.5453 4.32173 12.9492C4.50004 14.18 5.68354 15.2144 6.94692 15.1025C7.78448 15.0935 8.58717 14.6075 9.02367 13.8959C9.16485 13.6467 9.32292 13.3919 9.33136 13.0988C9.40504 11.7573 9.37579 10.4213 9.38479 9.07978C9.39098 6.05634 9.37579 3.04134 9.39885 0.0274688L9.39829 0.0269063Z" fill="#333333"/>
</g>
<defs>
<clipPath id="clip0_5374_4116">
<rect width="18" height="18" fill="white" transform="translate(0 0.0117188)"/>
</clipPath>
</defs>
</svg>
