<svg width="24" height="24" viewBox="0 0 24 24" fill="none" xmlns="http://www.w3.org/2000/svg">
<path d="M23.4982 6.165C23.2227 5.12591 22.4086 4.30773 21.3764 4.02955C19.5055 3.525 12 3.525 12 3.525C12 3.525 4.49455 3.525 2.62364 4.02955C1.59136 4.30773 0.777273 5.12591 0.501818 6.165C0 8.04954 0 11.9795 0 11.9795C0 11.9795 0 15.9095 0.501818 17.7941C0.777273 18.8332 1.59136 19.6514 2.62364 19.9295C4.49591 20.4341 12 20.4341 12 20.4341C12 20.4341 19.5055 20.4341 21.3764 19.9295C22.4086 19.6514 23.2227 18.8332 23.4982 17.7941C24 15.9109 24 11.9795 24 11.9795C24 11.9795 24 8.04954 23.4982 6.165ZM9.54545 15.5482V8.41091L15.8182 11.9795L9.54545 15.5482Z" fill="#4F4643"/>
</svg>
