<svg width="32" height="32" viewBox="0 0 32 32" fill="none" xmlns="http://www.w3.org/2000/svg">
<g id="Vector">
<path id="Vector_2" d="M32 16C32 7.16344 24.8366 0 16 0C7.16344 0 0 7.16344 0 16C0 23.9859 5.85094 30.6053 13.5 31.8056V20.625H9.4375V16H13.5V12.475C13.5 8.465 15.8888 6.25 19.5434 6.25C21.2941 6.25 23.125 6.5625 23.125 6.5625V10.5H21.1075C19.12 10.5 18.5 11.7334 18.5 12.9988V16H22.9375L22.2281 20.625H18.5V31.8056C26.1491 30.6053 32 23.9863 32 16Z" fill="#1877F2"/>
<path id="Vector_3" d="M22.2281 20.625L22.9375 16H18.5V12.9987C18.5 11.7334 19.12 10.5 21.1075 10.5H23.125V6.5625C23.125 6.5625 21.2941 6.25 19.5434 6.25C15.8888 6.25 13.5 8.465 13.5 12.475V16H9.4375V20.625H13.5V31.8056C14.3147 31.9334 15.1494 32 16 32C16.8506 32 17.6853 31.9334 18.5 31.8056V20.625H22.2281Z" fill="white"/>
</g>
</svg>
