<svg width="32" height="32" viewBox="0 0 32 32" fill="none" xmlns="http://www.w3.org/2000/svg">
<rect width="32" height="32" rx="16" fill="#06C755"/>
<path d="M25.9991 14.5874C25.9991 10.1129 21.5134 6.47266 15.9995 6.47266C10.4857 6.47266 6 10.1129 6 14.5874C6 18.5988 9.55781 21.9579 14.3631 22.5934C14.6883 22.6637 15.1316 22.808 15.2441 23.0864C15.3453 23.3394 15.3097 23.7349 15.2769 23.9908C15.2769 23.9908 15.1598 24.6966 15.1344 24.8465C15.0904 25.0996 14.9339 25.8353 16.0005 25.3854C17.068 24.9356 21.7589 21.9945 23.8565 19.5801C25.3055 17.9905 26 16.3785 26 14.5874H25.9991ZM12.4717 16.9802C12.4717 17.0861 12.3864 17.1714 12.2805 17.1714H9.47158C9.36567 17.1714 9.28038 17.0861 9.28038 16.9802V16.9774V12.6163C9.28038 12.5104 9.36567 12.4251 9.47158 12.4251H10.1811C10.286 12.4251 10.3723 12.5114 10.3723 12.6163V16.0804H12.2815C12.3864 16.0804 12.4727 16.1666 12.4727 16.2716V16.9811L12.4717 16.9802ZM14.1625 16.9802C14.1625 17.0851 14.0772 17.1714 13.9713 17.1714H13.2618C13.1568 17.1714 13.0706 17.0861 13.0706 16.9802V12.6163C13.0706 12.5114 13.1559 12.4251 13.2618 12.4251H13.9713C14.0772 12.4251 14.1625 12.5104 14.1625 12.6163V16.9802ZM18.9903 16.9802C18.9903 17.0851 18.905 17.1714 18.7991 17.1714H18.0943C18.0774 17.1714 18.0605 17.1686 18.0446 17.1648C18.0446 17.1648 18.0427 17.1648 18.0418 17.1648C18.0371 17.1639 18.0334 17.162 18.0287 17.1611C18.0268 17.1611 18.0249 17.1592 18.0231 17.1592C18.0202 17.1583 18.0165 17.1564 18.0137 17.1554C18.0109 17.1536 18.0071 17.1526 18.0043 17.1508C18.0024 17.1498 18.0006 17.1489 17.9987 17.1479C17.9949 17.1461 17.9903 17.1433 17.9865 17.1404C17.9865 17.1404 17.9846 17.1395 17.9846 17.1386C17.9659 17.1255 17.949 17.1095 17.935 17.0908L15.9358 14.3906V16.9821C15.9358 17.087 15.8505 17.1733 15.7446 17.1733H15.0351C14.9301 17.1733 14.8439 17.088 14.8439 16.9821V12.6182C14.8439 12.5132 14.9292 12.427 15.0351 12.427H15.7399C15.7399 12.427 15.7446 12.427 15.7465 12.427C15.7502 12.427 15.753 12.427 15.7568 12.427C15.7605 12.427 15.7633 12.427 15.7671 12.4279C15.7699 12.4279 15.7727 12.4279 15.7755 12.4289C15.7793 12.4289 15.783 12.4308 15.7868 12.4317C15.7887 12.4317 15.7915 12.4326 15.7933 12.4336C15.7971 12.4345 15.8008 12.4364 15.8046 12.4373C15.8065 12.4373 15.8083 12.4392 15.8111 12.4392C15.8149 12.4411 15.8186 12.442 15.8224 12.4439C15.8243 12.4448 15.8261 12.4458 15.828 12.4467C15.8318 12.4486 15.8355 12.4504 15.8383 12.4523C15.8402 12.4533 15.8421 12.4542 15.8439 12.4561C15.8477 12.4579 15.8505 12.4608 15.8543 12.4626C15.8561 12.4636 15.858 12.4654 15.8599 12.4664C15.8636 12.4692 15.8664 12.472 15.8702 12.4748C15.8711 12.4757 15.873 12.4767 15.8739 12.4776C15.8777 12.4814 15.8814 12.4851 15.8852 12.4898C15.8852 12.4898 15.8852 12.4898 15.8861 12.4907C15.8917 12.4973 15.8964 12.5039 15.9011 12.5104L17.8975 15.2069V12.6154C17.8975 12.5104 17.9828 12.4242 18.0887 12.4242H18.7982C18.9031 12.4242 18.9894 12.5095 18.9894 12.6154V16.9792L18.9903 16.9802ZM22.863 13.3249C22.863 13.4308 22.7777 13.5161 22.6718 13.5161H20.7626V14.2528H22.6718C22.7768 14.2528 22.863 14.339 22.863 14.444V15.1535C22.863 15.2594 22.7777 15.3447 22.6718 15.3447H20.7626V16.0814H22.6718C22.7768 16.0814 22.863 16.1676 22.863 16.2726V16.9821C22.863 17.088 22.7777 17.1733 22.6718 17.1733H19.8629C19.757 17.1733 19.6717 17.088 19.6717 16.9821V16.9792V12.6229V12.6182C19.6717 12.5123 19.757 12.427 19.8629 12.427H22.6718C22.7768 12.427 22.863 12.5132 22.863 12.6182V13.3277V13.3249Z" fill="white"/>
</svg>
