<svg width="24" height="24" viewBox="0 0 24 24" fill="none" xmlns="http://www.w3.org/2000/svg">
<path d="M12.5311 0.02025C13.8398 0 15.1411 0.012 16.4408 0C16.5196 1.53075 17.0701 3.09 18.1906 4.17225C19.3088 5.2815 20.8906 5.78925 22.4296 5.961V9.98775C20.9873 9.9405 19.5383 9.6405 18.2296 9.0195C17.6596 8.7615 17.1286 8.42925 16.6088 8.0895C16.6021 11.0115 16.6208 13.9297 16.5901 16.8397C16.5121 18.2377 16.0508 19.629 15.2378 20.781C13.9298 22.6987 11.6596 23.949 9.32781 23.988C7.89756 24.0697 6.46881 23.6798 5.25006 22.9613C3.23031 21.7703 1.80906 19.59 1.60206 17.25C1.57806 16.7498 1.56981 16.2502 1.59006 15.762C1.77006 13.8593 2.71131 12.039 4.17231 10.8007C5.82831 9.3585 8.14806 8.6715 10.3201 9.078C10.3403 10.5592 10.2811 12.039 10.2811 13.5203C9.28881 13.1993 8.12931 13.2892 7.26231 13.8915C6.62931 14.3017 6.14856 14.9302 5.89806 15.6412C5.69106 16.1483 5.75031 16.7115 5.76231 17.25C6.00006 18.891 7.57806 20.2702 9.26256 20.121C10.3793 20.109 11.4496 19.461 12.0316 18.5123C12.2198 18.18 12.4306 17.8403 12.4418 17.4495C12.5401 15.6608 12.5011 13.8795 12.5131 12.0907C12.5213 8.0595 12.5011 4.0395 12.5318 0.021L12.5311 0.02025Z" fill="#4F4643"/>
</svg>
