<svg width="18" height="19" viewBox="0 0 18 19" fill="none" xmlns="http://www.w3.org/2000/svg">
<g clip-path="url(#clip0_5374_4113)">
<path d="M5.27258 0.0746626C4.31498 0.119843 3.66103 0.272663 3.08935 0.497303C2.49769 0.727883 1.99621 1.0373 1.49725 1.53806C0.998295 2.03882 0.691035 2.54066 0.462075 3.13322C0.240495 3.70616 0.0903746 4.36064 0.0480746 5.31878C0.0057746 6.27692 -0.00358541 6.5849 0.00109459 9.02894C0.00577459 11.473 0.0165746 11.7793 0.0630146 12.7395C0.108735 13.6969 0.261015 14.3506 0.485655 14.9225C0.716595 15.5142 1.02565 16.0155 1.52659 16.5146C2.02753 17.0137 2.52901 17.3203 3.12301 17.5496C3.69541 17.7708 4.35008 17.9217 5.30804 17.9636C6.266 18.0055 6.57434 18.0153 9.01766 18.0106C11.461 18.0059 11.7686 17.9951 12.7285 17.9496C13.6885 17.904 14.3388 17.7507 14.9109 17.5271C15.5025 17.2956 16.0042 16.9871 16.503 16.486C17.0017 15.9849 17.3088 15.4827 17.5376 14.8897C17.7594 14.3173 17.91 13.6627 17.9516 12.7054C17.9935 11.7448 18.0034 11.4381 17.9988 8.99438C17.9941 6.5507 17.9831 6.24434 17.9376 5.28458C17.892 4.32482 17.7396 3.67304 17.5151 3.10082C17.2838 2.50916 16.9751 2.00822 16.4743 1.50872C15.9736 1.00922 15.471 0.702323 14.8783 0.474083C14.3055 0.252503 13.6512 0.101483 12.6933 0.0600826C11.7353 0.0186826 11.427 0.0080626 8.98274 0.0127426C6.53852 0.0174226 6.23252 0.0278626 5.27258 0.0746626ZM5.3777 16.3445C4.5002 16.3063 4.02373 16.1605 3.70621 16.0385C3.28573 15.8765 2.98621 15.6807 2.66977 15.3673C2.35333 15.0539 2.15893 14.7533 1.99477 14.3337C1.87147 14.0162 1.72297 13.5403 1.68193 12.6628C1.63729 11.7144 1.62793 11.4296 1.62271 9.02678C1.61749 6.62396 1.62667 6.33956 1.66825 5.39078C1.70569 4.514 1.85239 4.037 1.97425 3.71966C2.13625 3.29864 2.33137 2.99966 2.64547 2.6834C2.95957 2.36714 3.25927 2.17238 3.67921 2.00822C3.99637 1.88438 4.4723 1.73714 5.34944 1.69538C6.29858 1.65038 6.58298 1.64138 8.98544 1.63616C11.3879 1.63094 11.673 1.63994 12.6225 1.6817C13.4993 1.71986 13.9765 1.86512 14.2935 1.9877C14.7141 2.1497 15.0135 2.34428 15.3297 2.65892C15.646 2.97356 15.8409 3.27218 16.0051 3.69302C16.1291 4.00928 16.2763 4.48502 16.3177 5.3627C16.3629 6.31184 16.3732 6.59642 16.3775 8.9987C16.3818 11.401 16.3734 11.6863 16.3318 12.6347C16.2934 13.5122 16.148 13.9888 16.0258 14.3067C15.8638 14.727 15.6685 15.0267 15.3542 15.3428C15.0399 15.6589 14.7406 15.8536 14.3205 16.0178C14.0037 16.1415 13.5272 16.2891 12.6508 16.3308C11.7016 16.3755 11.4172 16.3848 9.01388 16.39C6.61052 16.3953 6.32701 16.3855 5.37787 16.3445M12.7147 4.20152C12.715 4.41514 12.7787 4.62386 12.8977 4.80127C13.0167 4.97869 13.1856 5.11683 13.3831 5.19823C13.5806 5.27964 13.7978 5.30064 14.0073 5.25859C14.2167 5.21654 14.409 5.11332 14.5597 4.96199C14.7105 4.81067 14.813 4.61802 14.8543 4.40843C14.8956 4.19884 14.8738 3.98171 14.7917 3.78451C14.7095 3.58731 14.5708 3.41889 14.3929 3.30056C14.2151 3.18223 14.0061 3.1193 13.7925 3.11972C13.5061 3.1203 13.2317 3.23458 13.0296 3.43745C12.8275 3.64031 12.7142 3.91515 12.7147 4.20152ZM4.37887 9.02066C4.38391 11.5731 6.4568 13.6375 9.00866 13.6326C11.5605 13.6278 13.6264 11.5551 13.6215 9.00266C13.6167 6.45026 11.5432 4.3853 8.99102 4.39034C6.4388 4.39538 4.37401 6.46862 4.37887 9.02066ZM5.99996 9.01742C5.99878 8.42407 6.17358 7.84369 6.50226 7.34968C6.83093 6.85568 7.29871 6.47022 7.84645 6.24207C8.39419 6.01392 8.99728 5.95332 9.57947 6.06792C10.1616 6.18253 10.6968 6.4672 11.1172 6.88593C11.5376 7.30466 11.8243 7.83866 11.9413 8.42038C12.0582 9.0021 12 9.60543 11.774 10.1541C11.548 10.7027 11.1644 11.172 10.6717 11.5026C10.179 11.8333 9.59931 12.0104 9.00595 12.0115C8.61197 12.0124 8.22168 11.9356 7.85737 11.7855C7.49307 11.6355 7.16189 11.4152 6.88275 11.1372C6.6036 10.8591 6.38197 10.5288 6.2305 10.1651C6.07903 9.80139 6.00069 9.41141 5.99996 9.01742Z" fill="#333333"/>
</g>
<defs>
<clipPath id="clip0_5374_4113">
<rect width="18" height="18" fill="white" transform="translate(0 0.0117188)"/>
</clipPath>
</defs>
</svg>
