<svg width="155" height="36" viewBox="0 0 155 36" fill="none" xmlns="http://www.w3.org/2000/svg">
<g style="mix-blend-mode:exclusion" clip-path="url(#clip0_7003_2813)">
<path d="M52.0631 19.3246C52.0631 22.3433 51.8072 23.8077 49.3619 25.1489L49.1913 25.2436L49.5135 25.7318L49.651 25.6654C52.4612 24.3622 53.6934 23.3575 53.6934 19.1871V10.6521H52.0631V19.3198V19.3246Z" fill="white"/>
<path d="M66.8253 10.8606C66.9959 12.088 67.067 13.6187 67.067 16.1494V18.9928C67.067 21.3387 65.7922 22.5755 63.38 22.5755C60.9678 22.5755 59.693 21.3434 59.693 18.9075V10.6568H58.0438V18.9739C58.0438 21.8173 59.7878 23.3812 62.9487 23.3812C66.1097 23.3812 67.7968 21.8363 67.7968 18.9075V16.1494C67.7968 13.742 67.8773 12.1639 68.0574 10.8606L68.0859 10.6568H66.7968L66.8253 10.8606Z" fill="white"/>
<path d="M80.7771 10.8606C80.9477 12.0833 81.0188 13.614 81.0188 16.1494V20.443L73.4647 10.6568H71.6781V10.9459L72.389 11.8653V17.6896C72.389 20.0212 72.3131 21.6514 72.1473 22.9831L72.1236 23.1821H73.3936L73.3652 22.9784C73.1946 21.7557 73.1235 20.225 73.1235 17.6896V12.8084L81.3552 23.3812H81.7533V16.1494C81.7533 13.8178 81.8291 12.1876 81.995 10.8559L82.0187 10.6568H80.7486L80.7771 10.8606Z" fill="white"/>
<path d="M103.325 19.8838C102.33 21.4097 100.833 22.2486 99.1029 22.2486C96.3922 22.2486 94.1933 19.8838 94.1933 16.4954C94.1933 13.1069 96.141 10.8891 98.8186 10.8891C100.378 10.8891 101.724 11.6568 102.709 13.1069L102.809 13.2538L103.719 12.434L103.605 12.2966C102.553 11.0075 100.837 10.2682 98.9039 10.2682C95.198 10.2682 92.6057 12.96 92.6057 16.8129C92.6057 20.6657 95.07 23.1916 98.6053 23.1916C100.79 23.1916 102.534 22.1869 103.785 20.2108L103.889 20.0449L103.406 19.7653L103.325 19.8885V19.8838Z" fill="white"/>
<path d="M114.149 21.9926C112.567 22.3433 111.017 22.5234 109.534 22.5234H109.278V10.6568H107.647V23.1774H114.026L114.481 21.9879H114.149V21.9926Z" fill="white"/>
<path d="M119.353 10.6568H117.723V23.1774H119.353V10.6568Z" fill="white"/>
<path d="M132.371 10.8606C132.542 12.0833 132.613 13.614 132.613 16.1494V20.443L125.059 10.6568H123.272V10.9459L123.983 11.8653V17.6896C123.983 20.0212 123.907 21.6514 123.741 22.9831L123.718 23.1821H124.988L124.959 22.9784C124.789 21.7557 124.718 20.225 124.718 17.6896V12.8084L132.949 23.3812H133.347V16.1494C133.347 13.8178 133.423 12.1876 133.589 10.8559L133.613 10.6568H132.343L132.371 10.8606Z" fill="white"/>
<path d="M139.532 10.6568H137.901V23.1774H139.532V10.6568Z" fill="white"/>
<path d="M154.517 19.9501L154.436 20.0733C153.441 21.5993 151.943 22.4381 150.214 22.4381C147.323 22.4381 145.304 20.0733 145.304 16.6849C145.304 13.2965 147.252 11.0786 149.929 11.0786C151.488 11.0786 152.834 11.8464 153.82 13.2965L153.919 13.4434L154.829 12.6236L154.716 12.4861C153.664 11.1971 151.948 10.4578 150.014 10.4578C146.309 10.4578 143.716 13.1496 143.716 17.0024C143.716 20.8553 146.181 23.3812 149.716 23.3812C151.901 23.3812 153.645 22.3765 154.896 20.4003L155 20.2345L154.517 19.9549V19.9501Z" fill="white"/>
<path d="M0 0.420506V35.5795H35.159V0.420506H0ZM0.616076 2.89429C0.616076 1.937 1.52597 1.04606 2.47852 1.03658H8.69141V20.7273C8.69141 27.7127 7.8763 31.3238 1.2748 34.4658C0.881463 34.1151 0.616076 33.6175 0.611337 33.101V2.89429H0.616076ZM18.0131 26.3052C18.0131 29.8547 17.961 32.6934 17.7146 34.9634H2.50696C2.50696 34.9634 2.48326 34.9634 2.46904 34.9634C2.2937 34.9634 2.11835 34.9255 1.95249 34.8639C9.16058 31.9257 10.715 29.5846 10.715 20.4098V1.03658H13.312V14.3249C13.312 17.8175 14.9612 20.0923 18.0131 20.9501V26.3099V26.3052ZM18.0131 19.6753C16.1222 18.7511 15.1649 16.9171 15.1649 14.1827V1.03658H27.6571C27.8893 3.27815 27.9367 6.06471 27.9367 9.53369V14.3249C27.9367 17.7322 26.3064 19.7511 23.2024 20.2534L19.1268 14.8841L19.0889 14.8367H17.0179V15.0784L18.0131 16.3816V19.68V19.6753ZM21.0366 20.3624C20.2357 20.3292 19.5107 20.2108 18.8756 20.0165V17.519L21.0366 20.3624ZM19.1694 34.9634C18.923 32.6934 18.8709 29.8547 18.8709 26.3052V21.1444C19.5486 21.2676 20.2784 21.3387 21.0698 21.3387C21.3068 21.3387 21.5342 21.3292 21.7617 21.315L32.1497 34.9634H19.1694ZM31.7848 14.8367L31.799 14.9694C32.0549 17.2631 32.107 20.1444 32.107 23.7603V31.992L23.7948 21.0401C27.0742 20.2582 28.7897 17.9313 28.7897 14.1827V9.52895C28.7897 6.05997 28.8418 3.27341 29.0693 1.03184H32.671C33.6235 1.04132 34.5334 1.93226 34.5334 2.88955C34.5334 2.90377 34.5334 2.91324 34.5334 2.92746V33.1105C34.5192 33.9682 33.7989 34.7786 32.9553 34.9302V23.7556C32.9553 20.1397 33.0075 17.2583 33.2634 14.9646L33.2776 14.8319H31.7706L31.7848 14.8367Z" fill="white"/>
</g>
<defs>
<clipPath id="clip0_7003_2813">
<rect width="155" height="35.159" fill="white" transform="translate(0 0.420506)"/>
</clipPath>
</defs>
</svg>
