<svg width="16" height="20" viewBox="0 0 16 20" fill="none" xmlns="http://www.w3.org/2000/svg">
<g clip-path="url(#clip0_5374_4227)">
<path d="M2.15796 4.59553V14.4826C2.15796 15.3904 3.06374 15.8796 3.49746 15.8796H3.80346L2.52229 18.2165C2.37976 18.4764 2.47478 18.8027 2.73445 18.9453C2.8163 18.9903 2.90474 19.0117 2.992 19.0117C3.18134 19.0117 3.36504 18.911 3.46265 18.733L4.06619 17.6321H11.9983L12.6018 18.733C12.6994 18.911 12.8831 19.0117 13.0725 19.0117C13.1597 19.0117 13.2482 18.9903 13.33 18.9453C13.5897 18.8027 13.6847 18.4764 13.5422 18.2165L12.261 15.8796H12.5026C12.9363 15.8796 13.8421 15.3907 13.8421 14.4826V4.59553C13.8421 2.48378 2.15796 2.48378 2.15796 4.59553ZM2.98918 9.77769V5.73946C2.98918 5.32229 3.32694 4.98422 3.74372 4.98422H6.82563C7.24242 4.98422 7.58018 5.32229 7.58018 5.73946V9.77769C7.58018 10.1949 7.24242 10.5329 6.82563 10.5329H3.74396C3.32717 10.5329 2.98941 10.1949 2.98941 9.77769H2.98918ZM3.27496 13.4369C3.27496 12.9451 3.6734 12.5463 4.16474 12.5463C4.65609 12.5463 5.05453 12.9451 5.05453 13.4369C5.05453 13.9287 4.65609 14.3275 4.16474 14.3275C3.6734 14.3275 3.27496 13.9287 3.27496 13.4369ZM4.65468 16.5584L5.02701 15.8794H11.0375L11.4096 16.5584H4.65468ZM11.7262 14.3277C11.2348 14.3277 10.8364 13.9289 10.8364 13.4371C10.8364 12.9453 11.2348 12.5465 11.7262 12.5465C12.2175 12.5465 12.616 12.9453 12.616 13.4371C12.616 13.9289 12.2175 14.3277 11.7262 14.3277ZM13.0226 9.77769C13.0226 10.1949 12.6849 10.5329 12.2681 10.5329H9.18617C8.76938 10.5329 8.43163 10.1949 8.43163 9.77769V5.73946C8.43163 5.32229 8.76938 4.98422 9.18617 4.98422H12.2681C12.6849 4.98422 13.0226 5.32229 13.0226 5.73946V9.77769Z" fill="#333333"/>
</g>
<defs>
<clipPath id="clip0_5374_4227">
<rect width="16" height="16" fill="white" transform="translate(0 3.01172)"/>
</clipPath>
</defs>
</svg>
