<svg width="18" height="19" viewBox="0 0 18 19" fill="none" xmlns="http://www.w3.org/2000/svg">
<path d="M17.6236 4.63527C17.417 3.85596 16.8065 3.24232 16.0323 3.03368C14.6291 2.65527 9 2.65527 9 2.65527C9 2.65527 3.37091 2.65527 1.96773 3.03368C1.19352 3.24232 0.582955 3.85596 0.376364 4.63527C0 6.04868 0 8.99618 0 8.99618C0 8.99618 0 11.9437 0.376364 13.3571C0.582955 14.1364 1.19352 14.75 1.96773 14.9587C3.37193 15.3371 9 15.3371 9 15.3371C9 15.3371 14.6291 15.3371 16.0323 14.9587C16.8065 14.75 17.417 14.1364 17.6236 13.3571C18 11.9447 18 8.99618 18 8.99618C18 8.99618 18 6.04868 17.6236 4.63527ZM7.15909 11.6727V6.31971L11.8636 8.99618L7.15909 11.6727Z" fill="#333333"/>
</svg>
