<svg width="18" height="18" viewBox="0 0 18 18" fill="none" xmlns="http://www.w3.org/2000/svg">
<path d="M17.9911 2.05634C17.9343 1.84479 17.655 1.77757 17.4751 1.75237C16.8148 1.66142 16.0487 1.88285 15.5168 2.27727C13.9555 3.43534 12.4776 4.69472 11.1233 6.09102C9.63015 7.63016 8.31343 9.33042 7.07135 11.0757C6.49899 11.8803 5.94245 12.6959 5.39579 13.5183C5.22922 13.2717 5.06612 13.0241 4.90103 12.7838C4.17941 11.7296 3.46668 10.6659 2.67635 9.66109C2.53647 9.48315 2.13661 9.4792 1.94682 9.48315C1.5781 9.49057 1.20641 9.57459 0.864378 9.71002C0.540141 9.83853 -0.267981 10.2325 0.0893719 10.6867C0.863884 11.6713 1.56376 12.7122 2.27007 13.7457C2.81178 14.5375 3.33471 15.4034 4.02075 16.0816C4.26936 16.3277 4.79328 16.2748 5.09676 16.2299C5.34983 16.1918 5.59498 16.1261 5.83272 16.0326C6.07541 15.9363 6.4382 15.7766 6.58845 15.5428C8.03961 13.286 9.52586 11.044 11.1772 8.9271C11.8074 8.11898 12.4667 7.3331 13.1612 6.57935C13.4815 6.23188 13.8101 5.89232 14.1462 5.55968C14.2253 5.48159 14.3054 5.40399 14.3855 5.32639C14.3983 5.31354 14.4117 5.30118 14.4245 5.28883C14.4443 5.27004 14.467 5.2483 14.4814 5.23495C14.6553 5.07086 14.8323 4.90923 15.0102 4.74958C15.8673 3.98001 16.7708 3.26333 17.6956 2.57729C17.8404 2.47004 18.0465 2.26492 17.9906 2.05634H17.9911Z" fill="#9E586C"/>
</svg>
