<svg width="102" height="10" viewBox="0 0 102 10" fill="none" xmlns="http://www.w3.org/2000/svg">
<path d="M100.589 3.79382C82.5616 2.65656 64.6755 4.24734 52.3334 5.64672C53.3374 5.01243 53.9284 4.20959 54.096 3.24832C54.182 2.75545 54.1115 2.34181 53.8871 2.01908C53.5056 1.47091 52.8335 1.35288 52.1647 1.30663C35.0245 0.125767 17.4328 2.50556 1.2899 8.18708C1.17909 8.2259 1.09087 8.30405 1.04126 8.4072C0.991636 8.51034 0.986674 8.62572 1.02692 8.73205C1.09032 8.89953 1.25682 9.01172 1.44097 9.01172C1.49279 9.01172 1.54351 9.00321 1.59203 8.9862C17.6191 3.34508 35.0846 0.98177 52.1008 2.15519C52.5259 2.18443 52.9829 2.2477 53.1544 2.49387C53.2464 2.62625 53.2718 2.84424 53.2255 3.10795C52.9779 4.52966 51.4188 5.53135 48.591 6.08483C48.3578 6.13055 48.2057 6.34375 48.2437 6.56972C48.2812 6.7909 48.4956 6.9488 48.7333 6.92328C62.8688 5.23148 81.5301 3.44291 100.538 4.64291C100.785 4.65089 100.984 4.47703 100.999 4.24575C101.015 4.01181 100.83 3.80924 100.588 3.79382H100.589Z" fill="white" stroke="white" stroke-width="0.5"/>
</svg>
