<svg width="72" height="7" viewBox="0 0 72 7" fill="none" xmlns="http://www.w3.org/2000/svg">
<path d="M70.7119 2.73889C58.0929 2.02807 45.5727 3.02236 36.9334 3.89701C37.6362 3.50056 38.0499 2.99876 38.1672 2.39794C38.2274 2.08988 38.178 1.83134 38.0209 1.62963C37.7539 1.28701 37.2834 1.21324 36.8153 1.18433C24.8173 0.446256 12.5031 1.93369 1.20324 5.4848C1.12567 5.50906 1.06392 5.55791 1.02918 5.62238C0.99445 5.68685 0.990977 5.75896 1.01915 5.82543C1.06353 5.9301 1.18008 6.00022 1.30898 6.00022C1.34526 6.00022 1.38076 5.99491 1.41472 5.98427C12.6336 2.45842 24.8593 0.981281 36.7705 1.7147C37.0681 1.73298 37.388 1.77252 37.508 1.92638C37.5725 2.00913 37.5903 2.14538 37.5578 2.31021C37.3846 3.19881 36.2932 3.82489 34.3137 4.17083C34.1505 4.19941 34.044 4.33267 34.0706 4.4739C34.0969 4.61215 34.247 4.71084 34.4133 4.69489C44.3081 3.63747 57.3709 2.51956 70.6764 3.2696C70.8493 3.27458 70.9883 3.16592 70.9991 3.02136C71.0099 2.87514 70.881 2.74853 70.7112 2.73889H70.7119Z" fill="#9E586C" stroke="#9E586C" stroke-width="0.5"/>
</svg>
