<svg width="220" height="50" viewBox="0 0 220 50" fill="none" xmlns="http://www.w3.org/2000/svg">
<g style="mix-blend-mode:exclusion" clip-path="url(#clip0_5374_23541)">
<path d="M73.8965 26.8835C73.8965 31.1765 73.5333 33.259 70.0625 35.1663L69.8203 35.3011L70.2777 35.9952L70.4728 35.9009C74.4615 34.0475 76.2104 32.6188 76.2104 26.688V14.5503H73.8965V26.8768V26.8835Z" fill="white"/>
<path d="M94.8488 14.8469C95.0909 16.5924 95.1918 18.7693 95.1918 22.3682V26.4118C95.1918 29.7479 93.3824 31.5069 89.9587 31.5069C86.5349 31.5069 84.7255 29.7546 84.7255 26.2905V14.5571H82.3848V26.3849C82.3848 30.4285 84.8601 32.6526 89.3466 32.6526C93.8331 32.6526 96.2277 30.4555 96.2277 26.2905V22.3682C96.2277 18.9445 96.342 16.7003 96.5976 14.8469L96.638 14.5571H94.8084L94.8488 14.8469Z" fill="white"/>
<path d="M114.651 14.8469C114.893 16.5857 114.994 18.7625 114.994 22.3682V28.4741L104.272 14.5571H101.736V14.9682L102.745 16.2757V24.5585C102.745 27.8743 102.638 30.1927 102.402 32.0864L102.369 32.3695H104.171L104.131 32.0797C103.889 30.3409 103.788 28.1641 103.788 24.5585V17.6168L115.472 32.6526H116.037V22.3682C116.037 19.0523 116.144 16.734 116.38 14.8402L116.413 14.5571H114.611L114.651 14.8469Z" fill="white"/>
<path d="M146.656 27.6787C145.243 29.8488 143.117 31.0417 140.662 31.0417C136.815 31.0417 133.694 27.6787 133.694 22.86C133.694 18.0413 136.458 14.8873 140.259 14.8873C142.472 14.8873 144.382 15.9791 145.781 18.0413L145.922 18.2502L147.214 17.0843L147.052 16.8889C145.559 15.0557 143.124 14.0044 140.38 14.0044C135.12 14.0044 131.44 17.8324 131.44 23.3116C131.44 28.7908 134.938 32.3829 139.956 32.3829C143.057 32.3829 145.532 30.9541 147.308 28.1438L147.456 27.9079L146.77 27.5103L146.656 27.6855V27.6787Z" fill="white"/>
<path d="M162.019 30.6779C159.772 31.1766 157.573 31.4327 155.467 31.4327H155.104V14.5571H152.79V32.3628H161.844L162.49 30.6712H162.019V30.6779Z" fill="white"/>
<path d="M169.404 14.5571H167.09V32.3628H169.404V14.5571Z" fill="white"/>
<path d="M187.881 14.8469C188.124 16.5857 188.225 18.7625 188.225 22.3682V28.4741L177.503 14.5571H174.967V14.9682L175.976 16.2757V24.5585C175.976 27.8743 175.868 30.1927 175.633 32.0864L175.599 32.3695H177.402L177.361 32.0797C177.119 30.3409 177.018 28.1641 177.018 24.5585V17.6168L188.702 32.6526H189.267V22.3682C189.267 19.0523 189.375 16.734 189.61 14.8402L189.644 14.5571H187.841L187.881 14.8469Z" fill="white"/>
<path d="M198.045 14.5571H195.731V32.3628H198.045V14.5571Z" fill="white"/>
<path d="M219.314 27.773L219.199 27.9483C217.787 30.1184 215.661 31.3113 213.206 31.3113C209.103 31.3113 206.238 27.9483 206.238 23.1296C206.238 18.3109 209.002 15.1568 212.803 15.1568C215.016 15.1568 216.926 16.2486 218.325 18.3109L218.466 18.5198L219.758 17.3539L219.596 17.1584C218.103 15.3253 215.668 14.2739 212.924 14.2739C207.664 14.2739 203.984 18.1019 203.984 23.5811C203.984 29.0603 207.482 32.6524 212.5 32.6524C215.601 32.6524 218.076 31.2236 219.852 28.4133L220 28.1774L219.314 27.7798V27.773Z" fill="white"/>
<path d="M0 0V50H49.9031V0H0ZM0.874431 3.51799C0.874431 2.15662 2.1659 0.889608 3.5179 0.876129H12.3362V28.8786C12.3362 38.8125 11.1793 43.948 1.8094 48.4162C1.25111 47.9175 0.874431 47.2099 0.867704 46.4753V3.51799H0.874431ZM25.567 36.8109C25.567 41.8587 25.493 45.8957 25.1432 49.1239H3.55826C3.55826 49.1239 3.52463 49.1239 3.50445 49.1239C3.25557 49.1239 3.0067 49.07 2.77127 48.9823C13.0021 44.8039 15.2084 41.4746 15.2084 28.427V0.876129H18.8944V19.7736C18.8944 24.7405 21.2352 27.9755 25.567 29.1953V36.8176V36.8109ZM25.567 27.3824C22.8832 26.0682 21.5244 23.46 21.5244 19.5714V0.876129H39.2552C39.5848 4.06389 39.6521 8.02669 39.6521 12.96V19.7736C39.6521 24.6192 37.3382 27.4902 32.9324 28.2046L27.1477 20.5688L27.0939 20.5014H24.1545V20.8451L25.567 22.6985V27.3891V27.3824ZM29.8584 28.3596C28.7217 28.3124 27.6925 28.144 26.7912 27.8676V24.3159L29.8584 28.3596ZM27.2082 49.1239C26.8585 45.8957 26.7845 41.8587 26.7845 36.8109V29.4716C27.7464 29.6469 28.7822 29.7479 29.9055 29.7479C30.2418 29.7479 30.5647 29.7345 30.8876 29.7142L45.6318 49.1239H27.2082ZM45.1139 20.5014L45.1341 20.6901C45.4973 23.952 45.5713 28.0496 45.5713 33.1918V44.8982L33.7732 29.3234C38.4279 28.2113 40.8628 24.9023 40.8628 19.5714V12.9532C40.8628 8.01995 40.9368 4.05715 41.2597 0.869389H46.3717C47.7237 0.882868 49.0152 2.14989 49.0152 3.51125C49.0152 3.53147 49.0152 3.54495 49.0152 3.56517V46.4887C48.995 47.7086 47.9726 48.861 46.7753 49.0767V33.1851C46.7753 28.0429 46.8493 23.9453 47.2125 20.6834L47.2327 20.4947H45.0937L45.1139 20.5014Z" fill="white"/>
</g>
<defs>
<clipPath id="clip0_5374_23541">
<rect width="220" height="50" fill="white"/>
</clipPath>
</defs>
</svg>
